<svg xmlns="http://www.w3.org/2000/svg" version="1.1" xmlns:xlink="http://www.w3.org/1999/xlink" xmlns:svgjs="http://svgjs.com/svgjs" width="53" height="20"><svg width="53" height="20" viewBox="0 0 53 20" fill="none" xmlns="http://www.w3.org/2000/svg">
<path d="M24.922 9.84247C23.6633 9.84247 22.6562 10.7775 22.6562 12.0078C22.6562 13.2381 23.6633 14.1732 24.922 14.1732C26.1808 14.1732 27.1878 13.2381 27.1878 12.0078C27.1374 10.8267 26.1304 9.84247 24.922 9.84247Z" fill="#7D7D7D"></path>
<path d="M52.0626 7.18491C51.3073 4.28137 49.4947 2.26365 46.6751 1.13176C45.4667 0.639636 44.1576 0.491998 42.8988 0.442786C40.9352 0.393573 38.9212 0.393573 36.9575 0.442786C36.5547 0.442786 36.5547 0.442786 36.5547 0.836486C36.5547 3.83845 36.5547 6.79121 36.5547 9.79318C36.5547 12.7951 36.5547 15.7971 36.5547 18.7991C36.5547 18.8975 36.5547 18.9467 36.5547 19.0451C36.5547 19.1436 36.605 19.1436 36.6554 19.1436C36.7561 19.1436 36.8064 19.1436 36.9071 19.1436C37.2596 19.1436 37.5617 19.1436 37.9141 19.1436H40.8345C40.8848 19.1436 40.9352 19.1436 40.9855 19.1436C42.2443 19.1436 43.8555 19.0944 44.359 19.0451C45.6681 18.8975 46.9268 18.553 48.0345 17.864C50.9045 16.1416 52.3143 13.5333 52.5157 10.2853C52.5157 9.25184 52.3647 8.21838 52.0626 7.18491ZM47.1282 13.2381C46.2723 14.4192 45.0639 15.1574 43.6037 15.3542C43.2513 15.4034 41.7408 15.4034 40.6331 15.4034C40.6331 11.8109 40.6331 8.21838 40.6331 4.57664C40.6331 4.52743 40.6331 4.42901 40.6331 4.37979C40.6331 4.08452 40.6331 4.08452 40.9352 4.08452C41.338 4.08452 41.7408 4.13373 42.1436 4.13373C42.7478 4.18294 43.352 4.18294 43.9562 4.33058C46.6247 4.87192 48.0849 6.88964 48.2863 9.15341C48.4373 10.7282 48.0345 12.057 47.1282 13.2381Z" fill="#7D7D7D"></path>
<path d="M12.5374 15.4036H10.1709C10.0702 15.4036 10.0199 15.4036 9.91917 15.4036C9.61707 15.4036 9.26462 15.4036 8.96252 15.3544C6.0422 14.8623 4.33029 12.6477 4.12889 10.3347C4.02819 8.75992 4.43099 7.38197 5.48835 6.20087C6.49535 5.06898 7.80446 4.47843 9.36532 4.33079C10.0199 4.28158 10.7248 4.28158 11.3793 4.18315C12.5374 4.03551 13.3933 3.44496 13.8465 2.4115C14.0982 1.87016 14.2493 1.2304 14.4003 0.689057C14.4507 0.541419 14.4003 0.492207 14.2493 0.492207C14.1989 0.492207 14.1486 0.492207 14.0982 0.492207C12.5877 0.492207 11.1276 0.492207 9.61707 0.492207C8.66042 0.492207 7.65341 0.639844 6.64641 0.984333C4.22959 1.77173 2.36663 3.14969 1.15823 5.41347C0.604374 6.49614 0.201571 7.62803 0.0505206 8.80914C-0.05018 9.69496 -0.05018 10.63 0.151221 11.5158C0.604374 13.632 1.61138 15.4528 3.27294 16.88C5.08555 18.4056 7.20026 19.1438 9.56672 19.2422C10.5234 19.2914 11.48 19.2914 12.4367 19.2914H12.5374C13.5947 19.2914 14.501 18.4056 14.501 17.3721C14.501 16.2402 13.6451 15.4036 12.5374 15.4036Z" fill="#7D7D7D"></path>
<path d="M33.0288 7.08649C33.0288 6.39752 32.9281 5.70854 32.777 5.01956C32.2735 3.00185 31.1155 1.52547 29.2022 0.688856C28.3462 0.295155 27.4399 0.147517 26.4832 0.0983047C26.4329 0.0983047 26.3825 0.0983047 26.3322 0.0983047H23.4622C23.4119 0.0983047 23.3615 0.0983047 23.3112 0.0983047C22.3545 0.0983047 21.4482 0.295155 20.5922 0.688856C18.6789 1.57468 17.4705 3.05106 17.0174 5.01956C16.8663 5.70854 16.7656 6.39752 16.7656 7.08649C16.7656 11.0235 16.7656 14.9605 16.7656 18.8483C16.7656 18.8975 16.7656 18.9467 16.7656 18.9959C16.7656 19.0944 16.816 19.1928 16.9167 19.1928C16.967 19.1928 17.0174 19.1928 17.0677 19.1928C18.2258 19.1928 19.3838 19.1928 20.5419 19.1928C20.5922 19.1928 20.6426 19.1928 20.6929 19.1928C20.7936 19.1928 20.844 19.1436 20.844 19.0452V6.44673C20.844 4.97035 22.1028 3.74004 23.6133 3.74004H26.0804C26.7853 3.74004 27.4399 3.9861 27.893 4.42901C27.9434 4.42901 27.9434 4.47823 27.9937 4.47823C28.0441 4.52744 28.0944 4.57665 28.1448 4.62586C28.1951 4.67508 28.1951 4.72429 28.2455 4.7735C28.5979 5.21641 28.8497 5.80697 28.8497 6.44673V12.7459C28.8497 14.7637 28.8497 16.7814 28.8497 18.7991V19.0452C28.8497 19.1436 28.9 19.242 29.0007 19.242C29.0511 19.242 29.1014 19.242 29.1518 19.242C30.3099 19.242 31.4679 19.242 32.626 19.242C32.6763 19.242 32.7267 19.242 32.777 19.242C32.9281 19.242 32.9281 19.1928 32.9281 19.0452C32.9281 18.9959 32.9281 18.9467 32.9281 18.8975C33.0288 14.9605 33.0288 11.0235 33.0288 7.08649Z" fill="#7D7D7D"></path>
</svg><style>@media (prefers-color-scheme: light) { :root { filter: none; } }
</style></svg>